<!-- <?xml version="1.0" ?><svg id="Icons" viewBox="0 0 24 24" xmlns="http://www.w3.org/2000/svg"><defs><style>.cls-1{fill:#232323;}</style></defs><path class="cls-1" d="M12,1A11,11,0,1,0,23,12,11,11,0,0,0,12,1Zm4.707,14.293a1,1,0,1,1-1.414,1.414L12,13.414,8.707,16.707a1,1,0,1,1-1.414-1.414L10.586,12,7.293,8.707A1,1,0,1,1,8.707,7.293L12,10.586l3.293-3.293a1,1,0,1,1,1.414,1.414L13.414,12Z"/></svg> -->
<svg data-name="Livello 1" viewBox="0 0 128 128" xmlns="http://www.w3.org/2000/svg"><path d="M64 0a64 64 0 1 0 64 64A64.07 64.07 0 0 0 64 0Zm0 122a58 58 0 1 1 58-58 58.07 58.07 0 0 1-58 58Z" fill="#ffffff" class="fill-000000"></path><path d="M92.12 35.79a3 3 0 0 0-4.24 0L64 59.75l-23.87-24A3 3 0 0 0 35.88 40l23.88 24-23.88 24a3 3 0 0 0 4.25 4.24L64 68.25l23.88 24A3 3 0 0 0 92.13 88L68.24 64l23.89-24a3 3 0 0 0-.01-4.21Z" fill="#ffffff" class="fill-000000"></path></svg>