<!-- <?xml version="1.0" ?><svg id="Icons" viewBox="0 0 24 24" xmlns="http://www.w3.org/2000/svg"><defs><style>.cls-1{fill:#232323;}</style></defs><path class="cls-1" d="M12,1A11,11,0,1,0,23,12,11,11,0,0,0,12,1Zm5.707,8.707-7,7a1,1,0,0,1-1.414,0l-3-3a1,1,0,0,1,1.414-1.414L10,14.586l6.293-6.293a1,1,0,0,1,1.414,1.414Z"/></svg> -->
<svg data-name="Livello 1" viewBox="0 0 128 128" xmlns="http://www.w3.org/2000/svg"><path d="M64 0a64 64 0 1 0 64 64A64.07 64.07 0 0 0 64 0Zm0 122a58 58 0 1 1 58-58 58.07 58.07 0 0 1-58 58Z" fill="#ffffff" class="fill-000000"></path><path d="M87.9 42.36 50.42 79.22 40.17 68.43a3 3 0 0 0-4.35 4.13l12.35 13a3 3 0 0 0 2.12.93h.05a3 3 0 0 0 2.1-.86l39.65-39a3 3 0 1 0-4.21-4.28Z" fill="#ffffff" class="fill-000000"></path></svg>